<svg version="1.1" id="Layer_1" xmlns="http://www.w3.org/2000/svg" xmlns:xlink="http://www.w3.org/1999/xlink" x="0px" y="0px"
	 width="100%" viewBox="0 0 720 448" enable-background="new 0 0 720 448" xml:space="preserve">
<path fill="#000000" opacity="1.000000" stroke="none" 
	d="
M116.386322,354.645172 
	C107.793068,343.951904 109.291718,331.636383 119.888840,321.937714 
	C127.198967,315.247375 135.690598,310.282471 143.952148,304.968445 
	C145.470673,303.991699 147.001343,303.033844 148.439789,302.122162 
	C148.265625,300.749939 147.293594,300.681946 146.575409,300.522491 
	C116.091896,293.753937 97.586090,273.928925 86.584900,245.773758 
	C77.290771,221.987442 74.833122,197.396774 77.566589,172.168320 
	C77.856117,169.496124 76.798050,167.902939 74.907188,166.201218 
	C62.531326,155.063354 53.515209,141.542648 47.816589,125.966240 
	C42.841042,112.366272 44.641720,108.317398 57.193966,101.269394 
	C70.731903,93.667923 85.346420,89.296844 100.563293,86.743172 
	C106.798897,85.696732 113.060921,84.727707 119.419601,85.199043 
	C121.509193,85.353935 122.837517,84.136391 124.242714,82.966652 
	C153.070587,58.969398 186.750717,46.012165 223.543976,42.143635 
	C255.316513,38.802990 286.419525,43.156239 315.350739,58.019577 
	C317.603882,59.177116 319.598145,59.303921 322.000824,58.713612 
	C336.236389,55.216076 350.609314,54.269737 365.047272,57.270515 
	C368.361755,57.959393 370.432251,57.246006 372.016205,54.259556 
	C374.654602,49.285072 379.131104,47.760006 384.525757,47.595547 
	C398.804871,47.160244 412.270203,50.430927 425.283508,56.004482 
	C427.402496,56.912037 429.332001,58.047737 431.907959,57.041424 
	C462.786926,44.978466 494.557007,44.202019 526.806885,49.719208 
	C560.762024,55.528141 592.481262,67.192085 618.216675,90.492310 
	C630.356262,101.483223 642.920593,109.391327 658.502930,114.177834 
	C672.595276,118.506653 684.783020,127.048164 694.696472,138.332657 
	C700.387695,144.810928 700.896912,148.143356 697.107483,155.942978 
	C691.341064,167.811691 682.364380,176.865997 671.574219,184.140533 
	C668.219177,186.402420 667.463623,188.793671 667.541565,192.796387 
	C668.081055,220.520554 665.578308,247.890533 651.615601,272.568237 
	C639.390381,294.174896 619.640381,305.354889 595.498230,309.284088 
	C592.400146,309.788300 589.285156,310.188934 585.001648,310.807373 
	C593.625244,321.550781 601.154663,332.151398 607.690735,343.640961 
	C611.744751,342.504242 613.804443,339.653198 615.575012,336.693665 
	C619.334656,330.408844 622.535339,323.764038 626.606812,317.697418 
	C632.250305,309.288544 640.430359,307.412079 647.618774,312.349121 
	C653.207703,316.187683 655.150879,321.955475 655.251160,328.389832 
	C655.502563,344.505463 649.309814,358.593018 641.019958,371.915405 
	C636.960388,378.439453 632.279785,384.522186 626.146912,389.308838 
	C624.883240,390.295074 624.296631,391.526337 623.992126,393.086945 
	C623.546021,395.373016 622.369568,397.280670 619.694336,397.068298 
	C617.151855,396.866425 616.027710,395.021881 615.699158,392.652405 
	C614.179321,381.693970 611.193481,371.149994 606.713989,361.037048 
	C598.957214,343.525543 588.967346,327.497253 575.433472,313.796448 
	C573.063965,311.397705 570.517273,310.245148 567.061340,310.227325 
	C562.750549,310.205109 558.433594,309.577728 554.137878,309.057709 
	C551.221375,308.704620 548.811157,307.382233 549.278870,303.970581 
	C549.725525,300.712524 552.398865,300.371582 555.042175,300.704651 
	C564.654480,301.915955 574.292419,302.346619 583.970154,301.920227 
	C621.545044,300.264832 647.029663,278.538605 654.578613,241.684570 
	C657.521301,227.318314 659.641296,212.851669 659.600525,198.138580 
	C659.592102,195.111099 659.388672,192.479874 656.421753,190.312485 
	C653.304382,188.035110 654.298889,184.986923 658.538452,182.609207 
	C668.073608,177.261429 676.584412,170.746155 683.455688,162.111832 
	C693.072632,150.027283 693.141479,146.523422 681.218323,136.904846 
	C666.585999,125.100784 649.994751,117.316673 631.076965,115.146721 
	C628.202393,114.816986 625.769714,113.909874 625.665588,110.473724 
	C625.577515,107.568481 623.352112,106.132034 621.632874,104.429970 
	C599.212830,82.234184 571.926514,69.046165 541.685730,61.321102 
	C520.032410,55.789700 497.984375,53.649349 475.794403,55.489643 
	C436.473206,58.750690 403.810638,74.882645 380.434021,107.590080 
	C375.271240,114.813599 375.437744,117.162262 380.427582,124.498932 
	C382.114502,126.979301 383.927734,129.389587 385.418274,131.984116 
	C387.783936,136.101944 390.208282,138.200317 395.756409,136.631958 
	C400.751678,135.219864 405.546722,138.148834 408.687683,142.452515 
	C412.052185,147.062454 413.126434,152.416397 410.233795,157.486099 
	C408.243927,160.973618 409.310608,162.840714 411.761200,165.085953 
	C415.535065,168.543640 418.806732,172.780411 424.999847,170.934509 
	C426.071869,170.615005 427.596680,171.381332 428.770630,171.942490 
	C430.376312,172.710007 431.489136,174.041473 430.886353,175.964645 
	C430.287109,177.876465 428.657562,178.520905 426.889923,178.007401 
	C423.776489,177.102982 421.132721,177.041000 420.324341,180.909897 
	C419.510773,184.803787 422.143005,186.169235 425.227448,187.180420 
	C431.814240,189.339798 431.841888,189.571075 429.144409,196.295517 
	C428.346130,198.285522 427.766510,200.416733 427.458496,202.537231 
	C427.013641,205.599640 428.176697,208.057205 430.942200,209.687164 
	C433.544098,211.220718 435.723785,210.316193 437.817169,208.662476 
	C438.470917,208.146072 439.081665,207.570435 439.762817,207.094559 
	C441.253082,206.053482 442.804138,205.592300 444.248474,207.134888 
	C445.623779,208.603745 445.326996,210.212631 444.316559,211.709518 
	C441.388458,216.047363 437.143066,217.612762 432.165497,216.772919 
	C429.661835,216.350494 428.084198,216.926025 426.629974,218.920441 
	C413.469604,236.969223 397.721619,252.443024 379.825745,265.768097 
	C379.446014,266.050842 379.194611,266.506012 378.495850,267.347290 
	C383.136932,271.546173 388.812683,273.888184 394.216888,276.577667 
	C397.632538,278.277496 401.326965,279.412903 404.878998,280.844543 
	C407.290680,281.816528 409.000519,283.481781 408.051361,286.219055 
	C407.035248,289.149353 404.488373,289.828217 401.927032,288.550842 
	C398.065094,286.624878 395.374573,287.975525 392.680328,290.736847 
	C385.545776,298.049133 379.000305,305.769775 374.863251,315.241974 
	C373.799896,317.676666 372.787994,320.087799 373.902313,322.912109 
	C380.021454,338.421448 384.922729,354.303955 388.378510,370.697235 
	C387.931366,361.701569 388.364746,352.758148 388.696350,343.811401 
	C389.097931,332.976349 390.204437,322.233643 392.678436,311.658569 
	C392.905365,310.688385 393.158447,309.717804 393.492401,308.780548 
	C394.286316,306.552704 395.678833,304.790649 398.253082,305.355225 
	C401.006256,305.959076 401.862305,308.114532 401.359131,310.758423 
	C400.085449,317.451263 398.790009,324.113220 398.025055,330.917419 
	C395.741241,351.231293 396.217346,371.469482 398.587158,391.714935 
	C399.006958,395.301239 395.640137,400.652924 392.229828,401.842407 
	C389.070709,402.944275 386.548950,401.023071 385.824524,396.934265 
	C381.981689,375.244202 376.324921,354.014343 368.950317,333.281891 
	C363.519348,318.013519 356.721680,303.362335 346.390411,290.631531 
	C344.106995,287.817780 341.951904,285.273499 337.627441,287.275818 
	C335.484375,288.268127 333.183838,287.384613 332.469574,284.794006 
	C331.582825,281.577820 333.936249,280.263672 336.357849,279.372833 
	C346.247375,275.734924 355.653320,271.100800 364.617645,265.600861 
	C386.346283,252.269547 404.490601,235.067810 419.517395,214.509842 
	C421.313751,212.052231 422.134094,209.688644 421.195892,206.631714 
	C420.185547,203.339600 420.982788,199.978455 421.874939,196.775726 
	C422.532013,194.416977 422.050812,193.022903 419.773651,192.041077 
	C415.231873,190.082794 413.477295,186.299255 413.494629,181.598175 
	C413.502319,179.515320 413.234039,177.819672 411.525452,176.273361 
	C394.674622,161.022919 382.184845,142.300140 369.635376,123.606026 
	C358.180939,106.543228 345.772308,90.242584 329.652893,77.199028 
	C309.401215,60.811733 285.563873,53.177616 260.192047,50.488335 
	C215.062698,45.704857 173.693283,57.110176 137.221863,83.667099 
	C127.304237,90.888687 117.766792,93.480507 106.259109,94.499588 
	C89.202957,96.010033 73.052635,101.278221 58.335873,110.455711 
	C54.579884,112.797981 53.688889,115.487312 54.917667,119.656418 
	C59.813061,136.265991 68.626068,150.371216 81.997757,161.323166 
	C85.663208,164.325333 86.468742,167.154587 85.992172,171.542786 
	C82.791847,201.011124 86.114479,229.492676 100.630241,255.823120 
	C116.194427,284.055328 143.127060,296.256805 174.337006,293.173035 
	C181.493393,292.465942 188.503433,291.120728 195.439789,289.306946 
	C198.412094,288.529724 201.489883,288.287872 202.440277,291.861969 
	C203.358978,295.316833 200.284653,296.385925 197.731705,297.158997 
	C187.969620,300.115143 177.964798,301.747620 167.777130,302.207703 
	C165.614441,302.305359 163.497894,302.188721 161.530319,303.469849 
	C151.480896,310.013184 141.351395,316.433960 131.325989,323.013519 
	C127.257271,325.683807 123.763390,329.054169 121.102127,333.165985 
	C115.545662,341.751038 119.734459,350.179321 129.866943,350.955505 
	C142.492020,351.922668 153.259888,346.800537 163.735245,340.693115 
	C165.600998,339.605347 167.404083,338.378632 169.358902,337.484558 
	C171.061234,336.705902 172.717697,337.312561 173.754608,338.835663 
	C174.774750,340.334137 174.943375,342.249695 173.535812,343.442169 
	C163.488815,351.953979 165.579193,364.376587 163.407486,375.304169 
	C161.492111,384.941986 161.627350,394.859467 162.175491,404.698395 
	C162.339157,407.635834 161.267044,409.757538 158.217621,409.972382 
	C155.395874,410.171143 154.187393,408.130188 153.672577,405.599365 
	C151.505417,394.945435 153.447433,384.350830 154.323502,373.774567 
	C154.855377,367.353638 156.293793,361.007812 157.409637,354.104279 
	C143.685593,358.327515 130.227600,364.095276 116.386322,354.645172 
M646.687805,327.079163 
	C646.522339,326.264923 646.378784,325.445465 646.187500,324.637329 
	C645.442627,321.489655 643.769287,319.115112 640.452881,318.404419 
	C637.278198,317.724060 635.488464,319.981201 633.890137,322.083679 
	C632.185852,324.325562 630.734070,326.776550 629.332703,329.228088 
	C626.526917,334.136139 625.110413,340.447662 620.637451,343.664246 
	C611.468689,350.257660 613.250977,357.258942 617.328918,365.548676 
	C619.677795,370.323547 620.804016,375.699860 622.823486,381.849579 
	C637.012634,365.787140 646.528625,348.962250 646.687805,327.079163 
M356.271942,92.240913 
	C360.650726,97.516159 365.029510,102.791397 369.904907,108.664940 
	C373.846863,95.998825 375.346619,84.079712 374.823181,71.867081 
	C374.695282,68.882355 372.641876,67.934578 370.380310,67.229698 
	C357.091003,63.087677 343.663818,63.555454 329.007599,65.833405 
	C339.026489,74.374596 348.141968,82.313553 356.271942,92.240913 
M386.750153,55.915150 
	C385.919983,55.972763 385.083313,55.983147 384.260651,56.095604 
	C378.619659,56.866741 377.736420,58.969135 381.015076,63.563934 
	C382.720978,65.954597 383.252930,68.763771 383.235687,71.624619 
	C383.207611,76.280579 383.022980,80.935883 382.878418,85.590652 
	C382.838501,86.876961 382.326752,88.265152 384.331055,89.400894 
	C394.340363,79.261360 405.391022,70.148254 419.239624,62.824478 
	C408.301361,58.108871 398.198730,56.079433 386.750153,55.915150 
M371.436768,303.908813 
	C375.779907,296.280823 382.045197,290.101044 387.715668,283.179901 
	C382.063568,279.674133 376.887238,276.430298 371.662933,273.265808 
	C371.022827,272.878113 369.922363,272.528992 369.378296,272.814911 
	C363.301544,276.008240 357.292236,279.330017 350.753174,282.896179 
	C358.221588,290.823486 362.258362,300.126770 368.158722,308.777466 
	C369.404938,306.943085 370.233459,305.723572 371.436768,303.908813 
z"/>
<path fill="#000000" opacity="1.000000" stroke="none" 
	d="
M577.230774,378.465149 
	C582.009827,375.626007 583.254700,371.905579 582.134766,366.805450 
	C579.983459,357.008759 574.898865,348.619507 570.106812,340.058807 
	C569.294250,338.607269 568.355591,337.203125 567.738708,335.670959 
	C566.912048,333.618103 567.215210,331.656433 569.282349,330.446503 
	C571.379700,329.218933 573.293030,329.896851 574.485535,331.796783 
	C581.748474,343.367981 589.264648,354.914764 590.896667,368.899963 
	C592.257812,380.564362 580.357910,390.227539 567.952454,387.947540 
	C558.110291,386.138641 550.817810,380.203461 544.150330,373.260834 
	C537.402954,366.234985 531.915833,358.346741 528.002747,349.405243 
	C527.472961,348.194611 527.045227,346.904724 526.808411,345.608032 
	C526.382385,343.275909 526.870789,341.146515 529.374207,340.313629 
	C531.947144,339.457672 533.643555,341.016052 534.441162,343.177368 
	C536.479126,348.699615 539.374146,353.723724 542.760193,358.487946 
	C548.115295,366.022736 554.240845,372.787537 562.499023,377.246979 
	C567.053955,379.706635 571.840088,380.757416 577.230774,378.465149 
z"/>
<path fill="#000000" opacity="1.000000" stroke="none" 
	d="
M321.017456,332.799683 
	C319.439056,338.301819 317.622498,343.332947 317.151154,348.673828 
	C316.360413,357.634338 323.158417,362.980255 331.807098,360.140625 
	C338.702606,357.876587 342.334900,352.322815 345.218506,346.177673 
	C347.063354,342.246277 347.999512,338.017120 348.944336,333.787384 
	C349.447968,331.532776 350.931976,329.678589 353.512115,330.122070 
	C355.951996,330.541382 357.247437,332.514221 356.850800,334.929230 
	C354.827271,347.249969 350.687469,358.463257 339.604462,365.706177 
	C328.930206,372.682007 314.141754,368.924561 309.825104,358.150635 
	C308.024261,353.655945 308.243103,348.961212 309.389160,344.403931 
	C312.101715,333.617340 315.417877,322.979034 316.818024,311.886566 
	C317.142700,309.314453 318.615540,307.390686 321.534821,307.977570 
	C324.312225,308.535919 325.238525,310.813873 324.803619,313.329498 
	C323.700775,319.708862 322.358887,326.046967 321.017456,332.799683 
z"/>
<path fill="#000000" opacity="1.000000" stroke="none" 
	d="
M643.581848,135.397308 
	C640.394592,131.865402 636.395081,129.500824 633.718262,123.837784 
	C648.183105,124.351646 659.536682,129.679413 670.016052,137.073257 
	C669.799255,139.069000 668.596008,138.875717 667.724182,139.210342 
	C663.355652,140.887039 661.848083,143.626114 664.065491,147.754013 
	C668.310913,155.657043 664.690857,161.980392 660.369873,167.974823 
	C658.301941,170.843613 655.314758,173.102661 653.042114,177.480087 
	C648.252075,170.694733 647.502075,163.554657 645.490601,156.972946 
	C648.488708,154.830032 651.406128,156.730469 655.249878,155.862076 
	C649.067322,150.734848 644.083374,145.653748 639.326294,139.789795 
	C642.748474,138.322510 645.441528,140.604126 648.935181,140.257889 
	C647.033691,138.531876 645.437256,137.082779 643.581848,135.397308 
z"/>
<path fill="#000000" opacity="1.000000" stroke="none" 
	d="
M513.133850,193.332657 
	C506.643585,197.655746 500.426270,197.171844 494.603821,193.106491 
	C489.434937,189.497452 487.009949,184.157257 487.978973,177.884781 
	C489.068634,170.831146 493.331757,166.213684 500.297363,164.283783 
	C506.468567,162.573959 513.965271,165.644760 517.658264,171.348267 
	C521.434692,177.180649 521.074890,184.659058 516.674805,190.007767 
	C515.730957,191.155090 514.534668,192.094772 513.133850,193.332657 
z"/>
<path fill="#000000" opacity="1.000000" stroke="none" 
	d="
M181.668457,182.672180 
	C187.486099,177.985870 193.483154,176.548065 199.932663,180.224426 
	C205.345993,183.310135 207.699432,188.192245 207.332153,194.398956 
	C206.971390,200.496017 203.762543,204.780518 198.342941,207.077118 
	C192.556686,209.529083 186.880341,208.890488 182.158340,204.380905 
	C177.713638,200.136124 176.061646,194.977844 178.019012,188.965958 
	C178.740509,186.749939 179.718277,184.633408 181.668457,182.672180 
z"/>
<path fill="#000000" opacity="1.000000" stroke="none" 
	d="
M318.325958,179.143890 
	C310.393890,190.117599 296.351196,187.026688 292.008331,177.207504 
	C289.287933,171.056747 291.185608,163.508316 296.358154,159.642639 
	C302.001038,155.425476 309.979736,155.533661 315.379211,159.900589 
	C320.873810,164.344452 322.073608,171.572495 318.325958,179.143890 
z"/>
<path fill="#000000" opacity="1.000000" stroke="none" 
	d="
M247.498291,222.353928 
	C243.882294,215.343704 241.050812,208.417923 239.761368,200.985641 
	C239.347061,198.597610 237.992828,197.674332 236.020630,196.884583 
	C234.620529,196.323959 233.247955,195.346039 233.784363,193.500443 
	C234.253662,191.885757 235.656052,191.850098 237.065811,192.075119 
	C240.407196,192.608459 242.336472,190.529755 244.019943,188.171814 
	C245.627228,185.920593 247.551010,185.096298 249.970306,186.697266 
	C253.100937,188.768982 256.358246,189.319305 259.937592,188.128494 
	C261.530365,187.598618 262.931274,188.061951 263.870911,189.467117 
	C264.836151,190.910583 263.999634,192.055359 262.927307,192.917038 
	C261.144531,194.349579 261.608398,196.019211 261.939728,197.894730 
	C263.473846,206.578247 264.749847,215.299454 264.290588,224.162598 
	C264.107300,227.700104 263.946320,231.582962 259.894165,232.855469 
	C256.034210,234.067657 253.854630,230.818802 251.681732,228.389435 
	C250.142746,226.668808 249.000534,224.593338 247.498291,222.353928 
M255.685638,196.044876 
	C253.862411,193.246964 251.029800,191.988739 248.136719,193.161224 
	C245.034409,194.418457 244.434830,197.378510 245.220413,200.716080 
	C246.826614,207.539917 248.937622,214.166351 252.322128,220.318222 
	C253.540970,222.533646 254.474335,225.127823 257.899475,226.632080 
	C259.927521,216.118591 257.572235,206.476700 255.685638,196.044876 
z"/>
<path fill="#000000" opacity="1.000000" stroke="none" 
	d="
M175.568787,170.202087 
	C172.207535,170.242157 171.395065,168.253723 172.070984,165.908173 
	C172.989243,162.721573 174.547363,159.717697 176.764755,157.191589 
	C177.926773,155.867798 179.542480,155.166077 181.195770,156.392319 
	C182.654816,157.474487 182.586472,159.119110 181.703247,160.428619 
	C179.592270,163.558456 179.121063,167.662460 175.568787,170.202087 
z"/>
<path fill="#000000" opacity="1.000000" stroke="none" 
	d="
M287.669250,148.192474 
	C283.565643,148.319626 280.595825,146.638779 278.026855,144.192719 
	C276.720093,142.948471 276.336670,141.344177 277.444000,139.720566 
	C278.719971,137.849716 280.208740,138.455383 281.703033,139.467331 
	C283.628998,140.771606 285.824219,141.447662 287.965302,142.300903 
	C291.399506,143.669479 291.352814,145.568100 287.669250,148.192474 
z"/>
</svg>