<svg xmlns="http://www.w3.org/2000/svg" viewBox="0 0 24 24" fill="#fff">
  <path d="M17.291 19.073h-3.007v-4.709c0-1.123-0.02-2.568-1.564-2.568-1.566 0-1.806 1.223-1.806 2.487v4.79H7.908V9.389h2.887v1.323h0.04c0.589-1.006 1.683-1.607 2.848-1.564 3.048 0 3.609 2.005 3.609 4.612v5.313zm-12.776-11.008c-0.964 0-1.745-0.781-1.745-1.745 0-0.964 0.781-1.745 1.745-1.745 0.964 0 1.745 0.781 1.745 1.745 0 0.964-0.781 1.745-1.745 1.745zm1.503 11.008h-3.01V9.389h3.01v9.684zM18.79 1.783H1.497C0.68 1.774 0.01 2.429 0 3.246v17.364c0.01 0.818 0.68 1.473 1.497 1.464H18.79c0.819 0.01 1.492-0.645 1.503-1.464V3.245c-0.012-0.819-0.685-1.474-1.503-1.463z"/>
</svg>