<svg version="1.1" id="Layer_1" xmlns="http://www.w3.org/2000/svg" xmlns:xlink="http://www.w3.org/1999/xlink" x="0px" y="0px"
	 width="100%" viewBox="0 0 740 577" enable-background="new 0 0 740 577" xml:space="preserve">
<path fill="none" opacity="1.000000" stroke="#000000" stroke-linecap="round" stroke-linejoin="round" stroke-width="5.000000"
	d="
M593.500000,161.500000 
	C594.234070,155.928757 589.704773,152.791290 586.808716,149.677902 
	C575.931580,137.984329 563.291565,128.484650 549.110840,120.795555 
	C540.593079,116.177017 532.176086,111.657806 523.015259,108.456284 
	C509.423737,103.706291 495.845154,98.981606 481.498901,97.007988 
	C478.673187,96.619255 475.833771,96.329552 472.999420,96.005112 
	C472.670380,95.967445 472.252075,96.130638 472.011749,95.981125 
	C463.087738,90.429443 453.309906,94.788437 443.973541,93.734245 
	C436.717834,92.915001 429.325378,95.095840 421.992218,95.931709 
	C413.281403,96.924599 404.911652,99.158791 396.475922,101.409821 
	C381.045166,105.527428 366.779022,111.543625 353.825928,121.268135 
	C346.928741,126.446175 340.222015,131.690567 334.612152,138.098190 
	C330.018616,143.344940 324.454193,147.829468 321.424713,154.465622 
	C318.705261,160.422607 315.127472,165.941635 312.296570,171.903412 
	C308.286041,180.349518 304.313446,188.649490 302.950592,197.992798 
	C302.821136,198.880188 302.145172,199.812073 301.478119,200.478073 
	C292.248962,209.692535 287.296570,221.265762 284.122833,233.531784 
	C281.330658,244.323074 281.750702,255.441177 282.964630,266.503876 
	C283.505615,271.433777 285.485382,275.881195 286.930328,280.521698 
	C287.581848,282.614105 289.226074,283.583435 290.500000,285.000000 
"/>
<path fill="none" opacity="1.000000" stroke="#000000" stroke-linecap="round" stroke-linejoin="round" stroke-width="5.000000"
	d="
M626.000000,234.500000 
	C627.810730,235.773438 627.984680,237.864319 627.414429,239.469604 
	C624.839539,246.717697 626.283020,254.159958 626.059143,261.501801 
	C625.826416,269.131409 624.763733,276.610291 622.981934,283.995636 
	C620.149719,295.734924 616.138000,306.922516 610.150818,317.584686 
	C601.258240,333.421021 588.027344,343.008301 570.988525,347.960541 
	C568.133423,348.790375 565.451233,349.840942 563.000000,351.500000 
"/>
<path fill="none" opacity="1.000000" stroke="#000000" stroke-linecap="round" stroke-linejoin="round" stroke-width="6.000000"
	d="
M374.000000,107.500000 
	C370.357422,103.118500 364.994843,102.143372 359.993652,100.519562 
	C348.934418,96.928818 337.522614,94.906738 325.990601,93.852692 
	C319.648346,93.272987 318.002167,95.542374 317.915497,101.498772 
	C317.771942,111.363319 318.161865,121.213394 319.198761,130.978897 
	C319.622101,134.965851 320.455780,138.924179 320.577942,142.997665 
	C320.646057,145.266891 322.399231,146.942917 324.000000,148.500000 
"/>
<path fill="none" opacity="1.000000" stroke="#000000" stroke-linecap="round" stroke-linejoin="round" stroke-width="5.000000"
	d="
M351.000000,296.750000 
	C361.026672,296.479065 370.894653,297.257294 380.526886,300.418091 
	C383.183533,301.289856 386.160858,301.230408 389.001068,301.488251 
	C398.155426,302.319214 406.453644,306.434113 414.840240,309.444977 
	C421.803986,311.945068 428.367920,316.609406 435.052521,320.407593 
	C438.981476,322.639984 441.893860,326.005005 445.556641,328.413879 
	C447.864075,329.931427 450.128235,330.283783 453.599213,329.381836 
	C461.774689,327.257538 470.493317,327.406250 478.984894,328.606934 
	C480.451813,328.814331 481.921600,329.402557 483.497375,329.531860 
	C490.588043,330.113770 493.921021,333.992493 492.396820,340.977478 
	C490.553619,349.424225 490.080139,358.036316 488.678986,366.529541 
	C488.257233,369.085693 488.038147,372.362427 486.793518,373.824188 
	C482.135986,379.294464 484.745148,384.627289 486.075073,389.981354 
	C486.825226,393.001465 488.333344,395.833344 489.500000,398.750000 
"/>
<path fill="none" opacity="1.000000" stroke="#000000" stroke-linecap="round" stroke-linejoin="round" stroke-width="6.000000"
	d="
M259.500000,520.500000 
	C259.223511,522.553955 260.561371,522.434570 261.997589,522.534790 
	C265.172028,522.756287 268.332275,523.438904 271.500183,523.451294 
	C283.258636,523.497314 294.819427,525.724365 306.505096,526.413818 
	C312.142273,526.746521 317.834045,526.009033 323.499847,526.034241 
	C333.833740,526.080261 344.166138,526.388306 354.500153,526.483276 
	C363.332764,526.564331 372.166656,526.496643 381.000000,526.503540 
	C382.387543,526.504578 383.878815,526.681885 383.500000,524.500000 
"/>
<path fill="none" opacity="1.000000" stroke="#000000" stroke-linecap="round" stroke-linejoin="round" stroke-width="5.000000"
	d="
M315.500000,301.500000 
	C315.212219,302.787781 315.731750,303.122925 317.001923,303.024658 
	C321.247009,302.696106 330.307098,296.590637 330.999969,293.500000 
	C333.074310,284.247345 330.580017,278.052826 323.520477,273.964630 
	C317.478607,270.465790 311.489380,271.860291 306.081635,274.657776 
	C300.708862,277.437195 295.217957,280.797729 291.245911,285.220825 
	C288.033142,288.798431 285.730438,294.226837 285.327728,299.027496 
	C284.845917,304.771698 281.102051,306.002533 277.462830,306.838104 
	C268.807892,308.825287 261.547485,313.780212 253.516434,317.040497 
	C253.056000,317.227417 252.777023,317.971649 252.508743,318.504425 
	C249.960007,323.565765 245.997009,323.837341 240.975769,322.598145 
	C234.439926,320.985168 227.513626,320.783630 221.072754,319.203430 
	C213.211334,317.274719 205.461060,316.531982 197.500092,316.485352 
	C193.622711,316.462646 190.431686,317.450531 189.000000,321.500000 
"/>
<path fill="none" opacity="1.000000" stroke="#000000" stroke-linecap="round" stroke-linejoin="round" stroke-width="5.000000"
	d="
M146.500000,405.500000 
	C137.596909,400.831573 129.534012,395.420685 125.416794,385.534637 
	C122.969719,379.658875 123.645599,373.802948 124.635300,368.023163 
	C125.435791,363.348358 124.595314,358.949585 123.897499,354.516144 
	C123.444397,351.637360 116.932991,347.154724 114.000000,346.999939 
	C109.342804,346.754181 104.234581,350.737152 101.935356,355.468597 
	C97.388062,364.826202 98.656235,373.982513 101.403793,383.527679 
	C105.952301,399.329498 116.670067,409.414703 130.471130,417.052185 
	C132.300659,418.064667 133.840240,419.598450 136.000000,420.000000 
"/>
<path fill="none" opacity="1.000000" stroke="#000000" stroke-linecap="round" stroke-linejoin="round" stroke-width="6.000000"
	d="
M508.500000,347.500000 
	C516.029968,348.275055 523.501221,349.681946 530.945923,350.845917 
	C537.032349,351.797516 543.033875,351.202057 548.991455,352.059357 
	C552.256226,352.529144 554.819092,350.269073 558.003906,350.415375 
	C560.740723,350.541046 562.085449,351.405548 563.639832,353.913330 
	C570.425232,364.860260 576.318970,376.303497 581.254089,388.102844 
	C584.055420,394.800720 588.087830,401.586060 587.000000,409.500000 
"/>
<path fill="none" opacity="1.000000" stroke="#000000" stroke-linecap="round" stroke-linejoin="round" stroke-width="5.000000"
	d="
M492.000000,429.500000 
	C491.137573,435.623230 495.435089,439.960938 497.620483,444.947174 
	C501.432922,453.645538 502.635468,462.546997 503.291077,471.979767 
	C504.104431,483.682098 497.355469,491.412201 491.280182,499.331360 
	C486.740417,505.249023 479.809113,509.146179 472.974670,512.447571 
	C464.269592,516.652527 454.980286,519.181885 445.499939,520.999634 
	C432.451721,523.501587 419.176819,523.775513 406.016449,525.156860 
	C402.536621,525.522034 398.865204,524.622681 395.446472,526.396851 
	C394.455322,526.911255 392.124390,527.230042 392.500000,524.500000 
"/>
<path fill="none" opacity="1.000000" stroke="#000000" stroke-linecap="round" stroke-linejoin="round" stroke-width="5.000000"
	d="
M198.000000,382.000000 
	C184.375198,380.828278 172.297424,386.008850 161.730209,393.332184 
	C154.771988,398.154449 147.172653,403.450745 143.473114,411.988342 
	C143.002899,413.073486 142.338669,414.191467 141.472549,414.969452 
	C135.037292,420.750061 133.625900,429.024139 130.340759,436.429352 
	C127.937080,441.847595 125.876579,447.278625 124.513565,453.003235 
	C123.445953,457.487122 122.270767,461.965454 121.585236,466.512848 
	C121.168221,469.278992 119.860252,470.654846 117.561653,472.098175 
	C112.631012,475.194122 107.293968,478.014771 103.600563,482.581329 
	C100.248795,486.725464 99.809067,492.207306 101.681816,496.927856 
	C103.786774,502.233704 109.168297,503.930359 114.507347,504.419861 
	C118.326454,504.769989 122.167671,504.545654 126.019234,503.576447 
	C134.230347,501.510101 142.665726,502.809631 151.000000,502.500000 
"/>
<path fill="none" opacity="1.000000" stroke="#000000" stroke-linecap="round" stroke-linejoin="round" stroke-width="5.000000"
	d="
M585.000000,162.499985 
	C585.666687,162.833328 586.544556,163.625687 586.968140,163.430740 
	C592.814697,160.739960 598.146729,163.720261 603.471680,165.108673 
	C610.751831,167.006866 617.827026,169.686127 625.001648,171.994965 
	C633.440430,174.710632 640.903748,179.541550 648.997009,183.007034 
	C658.136475,186.920502 659.501099,194.257858 654.142639,202.591721 
	C646.396301,214.639420 635.204285,223.386627 625.838013,233.855072 
	C623.524597,236.440689 619.629822,237.817947 616.995911,240.496002 
	C616.163574,241.342377 615.099365,242.049683 615.500000,243.500000 
"/>
<path fill="none" opacity="1.000000" stroke="#000000" stroke-linecap="round" stroke-linejoin="round" stroke-width="6.000000"
	d="
M185.500000,479.500000 
	C182.578995,481.333557 178.967361,481.218719 176.000824,481.210266 
	C170.776810,481.195435 166.479660,483.570679 162.079254,485.212402 
	C153.811188,488.297028 148.062485,502.473846 155.504593,508.994781 
	C158.525208,511.641479 162.264008,513.202393 166.020309,513.888916 
	C178.397034,516.150879 190.873795,517.306335 203.507584,516.078064 
	C207.745956,515.665955 212.062698,516.100220 216.000000,514.000000 
"/>
<path fill="none" opacity="1.000000" stroke="#000000" stroke-linecap="round" stroke-linejoin="round" stroke-width="7.000000"
	d="
M546.500000,484.000000 
	C543.244141,485.528015 540.158020,483.861938 536.999451,483.505035 
	C527.683289,482.452332 518.331421,483.264069 509.000427,482.985870 
	C507.131500,482.930145 505.112518,483.547821 503.500000,482.000000 
"/>
<path fill="none" opacity="1.000000" stroke="#000000" stroke-linecap="round" stroke-linejoin="round" stroke-width="5.000000"
	d="
M199.000000,387.500000 
	C193.978775,392.564301 192.573669,399.420929 190.642624,405.793213 
	C186.978333,417.885223 184.815582,430.306519 183.874039,442.990662 
	C183.081467,453.667633 184.232697,464.040924 185.904633,474.515228 
	C187.241959,482.893280 191.345886,489.534821 196.382614,496.090210 
	C200.586960,501.562317 206.020752,505.247528 211.539551,508.940918 
	C213.806885,510.458313 216.426697,511.406616 216.424026,514.700317 
	C221.478699,512.943542 225.929138,514.439941 229.945267,515.677612 
	C239.645432,518.666931 249.471649,520.718384 259.500000,522.000000 
"/>
<path fill="none" opacity="1.000000" stroke="#000000" stroke-linecap="round" stroke-linejoin="round" stroke-width="6.000000"
	d="
M488.500000,400.500000 
	C483.343750,405.838562 476.676849,410.356812 478.905151,419.523041 
	C479.237061,420.888214 479.494690,421.972046 480.473541,423.024597 
	C485.108643,428.008698 493.032410,429.088318 501.025757,426.582153 
	C511.173340,423.400543 519.450439,417.866638 526.093628,409.575012 
	C527.475769,407.849884 527.420105,406.292694 527.500000,404.500000 
"/>
<path fill="none" opacity="1.000000" stroke="#000000" stroke-linecap="round" stroke-linejoin="round" stroke-width="5.000000"
	d="
M546.750000,483.000000 
	C548.920959,490.448669 554.122009,494.213409 561.475586,496.095428 
	C569.144958,498.058380 575.255310,495.329681 582.114319,492.254974 
	C595.164062,486.405029 605.050415,475.889740 617.871582,469.732635 
	C622.629639,467.447723 627.190796,463.508850 627.714661,456.516083 
	C628.280029,448.970245 621.778992,441.677948 613.016174,440.832214 
	C605.631104,440.119446 599.999207,443.944824 594.092773,446.698914 
	C588.170654,449.460297 582.961304,453.778290 577.555969,457.579590 
	C576.973877,457.988922 577.166626,459.500000 577.000000,460.500000 
"/>
<path fill="none" opacity="1.000000" stroke="#000000" stroke-linecap="round" stroke-linejoin="round" stroke-width="5.000000"
	d="
M451.000000,331.000000 
	C452.847412,336.044403 457.245422,339.260559 460.721161,342.781677 
	C466.422272,348.557220 470.280853,355.354462 474.434998,362.040405 
	C476.467499,365.311676 478.412720,368.677521 479.615936,372.463135 
	C480.282776,374.561157 481.937653,376.495209 484.500000,377.000000 
"/>
<path fill="none" opacity="1.000000" stroke="#000000" stroke-linecap="round" stroke-linejoin="round" stroke-width="5.000000"
	d="
M576.250000,406.000000 
	C576.727600,407.620789 578.246216,408.118774 579.513794,408.446686 
	C593.377625,412.032898 601.009277,422.425507 607.401184,434.054291 
	C608.284119,435.660583 607.833313,438.000000 608.000000,440.000000 
"/>
<path fill="none" opacity="1.000000" stroke="#000000" stroke-linecap="round" stroke-linejoin="round" stroke-width="5.000000"
	d="
M347.000031,455.500000 
	C347.166687,456.500000 347.708008,457.623871 347.426361,458.475647 
	C346.719818,460.612335 346.588959,462.644379 348.538452,463.942261 
	C350.729797,465.401245 353.188202,466.059174 356.011017,465.562561 
	C360.195343,464.826416 363.507782,462.093994 367.500000,461.000000 
"/>
<path fill="none" opacity="1.000000" stroke="#000000" stroke-linecap="round" stroke-linejoin="round" stroke-width="5.000000"
	d="
M385.500000,456.500000 
	C388.061768,460.307068 387.670471,462.263519 384.000000,464.000031 
	C378.282684,466.704865 371.763184,464.926819 367.500000,459.500000 
"/>
<path fill="none" opacity="1.000000" stroke="#000000" stroke-linecap="round" stroke-linejoin="round" stroke-width="5.000000"
	d="
M191.500000,349.500000 
	C195.550659,349.336273 194.245560,353.025482 194.315033,354.508667 
	C194.819809,365.284607 199.239075,375.312744 200.000000,386.000000 
"/>
<path fill="none" opacity="1.000000" stroke="#000000" stroke-linecap="round" stroke-linejoin="round" stroke-width="6.000000"
	d="
M192.500000,329.500000 
	C190.446045,329.223511 190.485931,330.549652 190.483261,331.999969 
	C190.474701,336.664276 191.777557,341.065582 192.946198,345.514130 
	C193.272110,346.754791 194.193527,348.166656 193.000000,349.500000 
"/>
<path fill="none" opacity="1.000000" stroke="#000000" stroke-linecap="round" stroke-linejoin="round" stroke-width="6.000000"
	d="
M285.500000,302.500000 
	C288.500000,304.077454 291.999603,303.715302 294.372498,302.288025 
	C297.285278,300.536072 300.345459,300.821381 302.395844,301.734009 
	C306.618408,303.613434 310.849854,302.548737 315.000000,303.250000 
"/>
<path fill="none" opacity="1.000000" stroke="#000000" stroke-linecap="round" stroke-linejoin="round" stroke-width="6.000000"
	d="
M331.500000,295.500000 
	C334.674591,297.420746 338.172577,296.107483 341.500031,296.499817 
	C342.839600,296.657806 344.875610,295.769928 344.500000,298.500000 
"/>
<path fill="none" opacity="1.000000" stroke="#000000" stroke-linecap="round" stroke-linejoin="round" stroke-width="4.000000"
	d="
M405.500000,260.500000 
	C405.981232,269.786865 413.802979,276.786102 422.483459,275.396637 
	C424.071686,275.142395 427.330658,274.956329 425.500000,271.500000 
"/>
<path fill="none" opacity="1.000000" stroke="#000000" stroke-linecap="round" stroke-linejoin="round" stroke-width="5.000000"
	d="
M504.500000,384.500000 
	C502.663544,390.830444 498.222839,394.867310 492.469025,397.430450 
	C488.960144,398.993500 488.213348,401.186676 489.500000,404.500000 
"/>
<path fill="none" opacity="1.000000" stroke="#000000" stroke-linecap="round" stroke-linejoin="round" stroke-width="8.000000"
	d="
M366.500000,248.750000 
	C359.799072,248.398392 353.233398,250.751587 346.500000,249.750000 
"/>
<path fill="none" opacity="1.000000" stroke="#000000" stroke-linecap="round" stroke-linejoin="round" stroke-width="3.000000"
	d="
M405.500000,264.500000 
	C404.000000,265.166656 402.452850,265.745087 401.008911,266.516693 
	C396.817108,268.756683 392.666656,270.013733 388.500000,266.500000 
"/>
</svg>